<svg xmlns="http://www.w3.org/2000/svg" viewBox="0 0 289.26 380.2"><g id="Camada_2" data-name="Camada 2"><g id="Camada_5" data-name="Camada 5"><path d="M289.08,219.36c-.33-8-1.33-25.77-4.15-41.74-2.27-12.82-4.78-23-6.26-28.15C237.07,3.23,155.66-.15,145.65,0h-2c-10-.15-91.41,3.23-133,149.47-1.48,5.19-4,15.33-6.26,28.15C1.51,193.59.51,211.4.18,219.36c-1.46,36,5.52,83.55,36.2,115.66,17.94,18.79,36.15,30.1,51.33,36.89a131.38,131.38,0,0,0,24.88,8.1V201.17a8,8,0,0,1,8-8h47.18a8,8,0,0,1,8,8v179a131.34,131.34,0,0,0,25.78-8.29c15.18-6.79,33.39-18.1,51.33-36.89C283.56,302.91,290.54,255.36,289.08,219.36ZM172.39,152.78q-11.07,10.6-27.76,10.6t-27.76-10.6q-11.06-10.6-11.05-26.41T116.87,100q11.05-10.6,27.76-10.61T172.39,100q11.06,10.61,11.06,26.4T172.39,152.78Z" style="fill:#fffce9"/></g></g></svg>